# xmcd
#
# Track frame offsets: 
#        150
#        18245
#        40070
#        63695
#        88673
#        113478
#        139993
#        175208
#        197143
#        212020
#
# Disc length: 3118 seconds
#
# Revision: 0
# Processed by: cddbd v1.5.2PL0 Copyright (c) Steve Scherf et al.
# Submitted via: ExactAudioCopy v1.0b3
#
DISCID=890c2c0a
DTITLE=Quang Binh, Trang Thanh Lan - Con Sao Sau
DYEAR=1995
DGENRE=
TTITLE0=Ly con khi Ly qua keu
TTITLE1=Quang Binh - Chuyen do que huong
TTITLE2=Lua ve dem trang
TTITLE3=Tieng ho mien Nam
TTITLE4=Trang ve thon da
TTITLE5=Con sao sau
TTITLE6=Su tich trau cau
TTITLE7=Quang Binh - Cung dan tinh ai
TTITLE8=Nhip song binh minh
TTITLE9=Dan sao Hau Giang
EXTD=
EXTT0=
EXTT1=
EXTT2=
EXTT3=
EXTT4=
EXTT5=
EXTT6=
EXTT7=
EXTT8=
EXTT9=
PLAYORDER=
